{
    "asset" : {
        "generator" : "Khronos glTF Blender I/O v3.4.50",
        "version" : "2.0"
    },
    "extensionsUsed" : [
        "KHR_materials_specular",
        "KHR_materials_ior"
    ],
    "scene" : 0,
    "scenes" : [
        {
            "name" : "Scene",
            "nodes" : [
                0,
                1,
                2,
                3,
                4
            ]
        }
    ],
    "nodes" : [
        {
            "mesh" : 0,
            "name" : "Aviators_Silver metallic_0",
            "rotation" : [
                0.70710688829422,
                0,
                0,
                0.7071066498756409
            ],
            "scale" : [
                0.009999999776482582,
                0.009999999776482582,
                0.009999999776482582
            ]
        },
        {
            "mesh" : 1,
            "name" : "Aviators_Transparent_0",
            "rotation" : [
                0.70710688829422,
                0,
                0,
                0.7071066498756409
            ],
            "scale" : [
                0.009999999776482582,
                0.009999999776482582,
                0.009999999776482582
            ]
        },
        {
            "mesh" : 2,
            "name" : "Aviators_Black gloss_0",
            "rotation" : [
                0.70710688829422,
                0,
                0,
                0.7071066498756409
            ],
            "scale" : [
                0.009999999776482582,
                0.009999999776482582,
                0.009999999776482582
            ]
        },
        {
            "mesh" : 3,
            "name" : "Aviators_Glass tinted_0",
            "rotation" : [
                0.70710688829422,
                0,
                0,
                0.7071066498756409
            ],
            "scale" : [
                0.009999999776482582,
                0.009999999776482582,
                0.009999999776482582
            ]
        },
        {
            "mesh" : 4,
            "name" : "Aviators_Gold metallic_0",
            "rotation" : [
                0.70710688829422,
                0,
                0,
                0.7071066498756409
            ],
            "scale" : [
                0.009999999776482582,
                0.009999999776482582,
                0.009999999776482582
            ]
        }
    ],
    "materials" : [
        {
            "doubleSided" : true,
            "extensions" : {
                "KHR_materials_specular" : {
                    "specularColorFactor" : [
                        2.371357614441398,
                        2.371357614441398,
                        2.371357614441398
                    ]
                },
                "KHR_materials_ior" : {
                    "ior" : 1.4500000476837158
                }
            },
            "name" : "Silver_metallic",
            "pbrMetallicRoughness" : {
                "baseColorFactor" : [
                    0.6919509768486023,
                    0.6919509768486023,
                    0.6919509768486023,
                    1
                ],
                "roughnessFactor" : 0.2549999952316284
            }
        },
        {
            "doubleSided" : true,
            "extensions" : {
                "KHR_materials_specular" : {
                    "specularColorFactor" : [
                        2.371357614441398,
                        2.371357614441398,
                        2.371357614441398
                    ]
                },
                "KHR_materials_ior" : {
                    "ior" : 1.4500000476837158
                }
            },
            "name" : "Transparent",
            "pbrMetallicRoughness" : {
                "baseColorFactor" : [
                    0.800000011920929,
                    0.800000011920929,
                    0.800000011920929,
                    0.3999999761581421
                ],
                "metallicFactor" : 0,
                "roughnessFactor" : 0.30000001192092896
            }
        },
        {
            "doubleSided" : true,
            "extensions" : {
                "KHR_materials_specular" : {
                    "specularColorFactor" : [
                        2.371357614441398,
                        2.371357614441398,
                        2.371357614441398
                    ]
                },
                "KHR_materials_ior" : {
                    "ior" : 1.4500000476837158
                }
            },
            "name" : "Black_gloss",
            "pbrMetallicRoughness" : {
                "baseColorFactor" : [
                    0.016789177432656288,
                    0.006026907823979855,
                    0.0013153470354154706,
                    1
                ],
                "metallicFactor" : 0,
                "roughnessFactor" : 0.11800002306699753
            }
        },
        {
            "alphaMode" : "BLEND",
            "doubleSided" : true,
            "extensions" : {
                "KHR_materials_specular" : {
                    "specularColorFactor" : [
                        2.371357614441398,
                        2.371357614441398,
                        2.371357614441398
                    ]
                },
                "KHR_materials_ior" : {
                    "ior" : 1.4500000476837158
                }
            },
            "name" : "Glass_tinted",
            "pbrMetallicRoughness" : {
                "baseColorTexture" : {
                    "index" : 0
                },
                "metallicFactor" : 0.3272727131843567,
                "roughnessFactor" : 0
            }
        },
        {
            "doubleSided" : true,
            "extensions" : {
                "KHR_materials_specular" : {
                    "specularColorFactor" : [
                        2.371357614441398,
                        2.371357614441398,
                        2.371357614441398
                    ]
                },
                "KHR_materials_ior" : {
                    "ior" : 1.4500000476837158
                }
            },
            "name" : "Gold_metallic",
            "pbrMetallicRoughness" : {
                "baseColorFactor" : [
                    0.852840006351471,
                    0.4929429888725281,
                    0.1577029973268509,
                    1
                ],
                "roughnessFactor" : 0.14499999582767487
            }
        }
    ],
    "meshes" : [
        {
            "name" : "Mesh",
            "primitives" : [
                {
                    "attributes" : {
                        "POSITION" : 0,
                        "TEXCOORD_0" : 1,
                        "NORMAL" : 2
                    },
                    "indices" : 3,
                    "material" : 0
                }
            ]
        },
        {
            "name" : "Mesh.001",
            "primitives" : [
                {
                    "attributes" : {
                        "POSITION" : 4,
                        "TEXCOORD_0" : 5,
                        "NORMAL" : 6
                    },
                    "indices" : 7,
                    "material" : 1
                }
            ]
        },
        {
            "name" : "Mesh.002",
            "primitives" : [
                {
                    "attributes" : {
                        "POSITION" : 8,
                        "TEXCOORD_0" : 9,
                        "NORMAL" : 10
                    },
                    "indices" : 11,
                    "material" : 2
                }
            ]
        },
        {
            "name" : "Mesh.003",
            "primitives" : [
                {
                    "attributes" : {
                        "POSITION" : 12,
                        "TEXCOORD_0" : 13,
                        "NORMAL" : 14
                    },
                    "indices" : 15,
                    "material" : 3
                }
            ]
        },
        {
            "name" : "Mesh.004",
            "primitives" : [
                {
                    "attributes" : {
                        "POSITION" : 16,
                        "TEXCOORD_0" : 17,
                        "NORMAL" : 18
                    },
                    "indices" : 19,
                    "material" : 4
                }
            ]
        }
    ],
    "textures" : [
        {
            "sampler" : 0,
            "source" : 0
        }
    ],
    "images" : [
        {
            "bufferView" : 16,
            "mimeType" : "image/png",
            "name" : "file1-file3"
        }
    ],
    "accessors" : [
        {
            "bufferView" : 0,
            "componentType" : 5126,
            "count" : 6398,
            "max" : [
                695.733642578125,
                188.67002868652344,
                -372.30792236328125
            ],
            "min" : [
                -695.733642578125,
                76.22476196289062,
                -421.3216857910156
            ],
            "type" : "VEC3"
        },
        {
            "bufferView" : 1,
            "componentType" : 5126,
            "count" : 6398,
            "type" : "VEC2"
        },
        {
            "bufferView" : 2,
            "componentType" : 5126,
            "count" : 6398,
            "type" : "VEC3"
        },
        {
            "bufferView" : 3,
            "componentType" : 5123,
            "count" : 27072,
            "type" : "SCALAR"
        },
        {
            "bufferView" : 4,
            "componentType" : 5126,
            "count" : 936,
            "max" : [
                126.43755340576172,
                211.15101623535156,
                -313.2195739746094
            ],
            "min" : [
                -126.4375228881836,
                150.55628967285156,
                -431.0502624511719
            ],
            "type" : "VEC3"
        },
        {
            "bufferView" : 5,
            "componentType" : 5126,
            "count" : 936,
            "type" : "VEC2"
        },
        {
            "bufferView" : 6,
            "componentType" : 5126,
            "count" : 936,
            "type" : "VEC3"
        },
        {
            "bufferView" : 7,
            "componentType" : 5123,
            "count" : 3288,
            "type" : "SCALAR"
        },
        {
            "bufferView" : 8,
            "componentType" : 5126,
            "count" : 5694,
            "max" : [
                867.9723510742188,
                188.02810668945312,
                -89.25066375732422
            ],
            "min" : [
                -867.9723510742188,
                -1221.182861328125,
                -408.4036560058594
            ],
            "type" : "VEC3"
        },
        {
            "bufferView" : 9,
            "componentType" : 5126,
            "count" : 5694,
            "type" : "VEC2"
        },
        {
            "bufferView" : 10,
            "componentType" : 5126,
            "count" : 5694,
            "type" : "VEC3"
        },
        {
            "bufferView" : 11,
            "componentType" : 5123,
            "count" : 22632,
            "type" : "SCALAR"
        },
        {
            "bufferView" : 12,
            "componentType" : 5126,
            "count" : 2376,
            "max" : [
                630.3101806640625,
                216.10955810546875,
                -98.19651794433594
            ],
            "min" : [
                -630.3101806640625,
                121.11425018310547,
                -602.0000610351562
            ],
            "type" : "VEC3"
        },
        {
            "bufferView" : 13,
            "componentType" : 5126,
            "count" : 2376,
            "type" : "VEC2"
        },
        {
            "bufferView" : 14,
            "componentType" : 5126,
            "count" : 2376,
            "type" : "VEC3"
        },
        {
            "bufferView" : 15,
            "componentType" : 5123,
            "count" : 13920,
            "type" : "SCALAR"
        },
        {
            "bufferView" : 17,
            "componentType" : 5126,
            "count" : 17163,
            "max" : [
                833.981689453125,
                218.87110900878906,
                -91.33832550048828
            ],
            "min" : [
                -833.981689453125,
                -676.6215209960938,
                -611.6676025390625
            ],
            "type" : "VEC3"
        },
        {
            "bufferView" : 18,
            "componentType" : 5126,
            "count" : 17163,
            "type" : "VEC2"
        },
        {
            "bufferView" : 19,
            "componentType" : 5126,
            "count" : 17163,
            "type" : "VEC3"
        },
        {
            "bufferView" : 20,
            "componentType" : 5123,
            "count" : 98592,
            "type" : "SCALAR"
        }
    ],
    "bufferViews" : [
        {
            "buffer" : 0,
            "byteLength" : 76776,
            "byteOffset" : 0,
            "target" : 34962
        },
        {
            "buffer" : 0,
            "byteLength" : 51184,
            "byteOffset" : 76776,
            "target" : 34962
        },
        {
            "buffer" : 0,
            "byteLength" : 76776,
            "byteOffset" : 127960,
            "target" : 34962
        },
        {
            "buffer" : 0,
            "byteLength" : 54144,
            "byteOffset" : 204736,
            "target" : 34963
        },
        {
            "buffer" : 0,
            "byteLength" : 11232,
            "byteOffset" : 258880,
            "target" : 34962
        },
        {
            "buffer" : 0,
            "byteLength" : 7488,
            "byteOffset" : 270112,
            "target" : 34962
        },
        {
            "buffer" : 0,
            "byteLength" : 11232,
            "byteOffset" : 277600,
            "target" : 34962
        },
        {
            "buffer" : 0,
            "byteLength" : 6576,
            "byteOffset" : 288832,
            "target" : 34963
        },
        {
            "buffer" : 0,
            "byteLength" : 68328,
            "byteOffset" : 295408,
            "target" : 34962
        },
        {
            "buffer" : 0,
            "byteLength" : 45552,
            "byteOffset" : 363736,
            "target" : 34962
        },
        {
            "buffer" : 0,
            "byteLength" : 68328,
            "byteOffset" : 409288,
            "target" : 34962
        },
        {
            "buffer" : 0,
            "byteLength" : 45264,
            "byteOffset" : 477616,
            "target" : 34963
        },
        {
            "buffer" : 0,
            "byteLength" : 28512,
            "byteOffset" : 522880,
            "target" : 34962
        },
        {
            "buffer" : 0,
            "byteLength" : 19008,
            "byteOffset" : 551392,
            "target" : 34962
        },
        {
            "buffer" : 0,
            "byteLength" : 28512,
            "byteOffset" : 570400,
            "target" : 34962
        },
        {
            "buffer" : 0,
            "byteLength" : 27840,
            "byteOffset" : 598912,
            "target" : 34963
        },
        {
            "buffer" : 0,
            "byteLength" : 197863,
            "byteOffset" : 626752
        },
        {
            "buffer" : 0,
            "byteLength" : 205956,
            "byteOffset" : 824616,
            "target" : 34962
        },
        {
            "buffer" : 0,
            "byteLength" : 137304,
            "byteOffset" : 1030572,
            "target" : 34962
        },
        {
            "buffer" : 0,
            "byteLength" : 205956,
            "byteOffset" : 1167876,
            "target" : 34962
        },
        {
            "buffer" : 0,
            "byteLength" : 197184,
            "byteOffset" : 1373832,
            "target" : 34963
        }
    ],
    "samplers" : [
        {
            "magFilter" : 9729,
            "minFilter" : 9987
        }
    ],
    "buffers" : [
        {
            "byteLength" : 1571016,
            "uri" : "data:application/octet-stream;base64,"
        }
    ]
}
